<?xml version="1.0" encoding="UTF-8" standalone="no"?>
<svg
   xmlns:dc="http://purl.org/dc/elements/1.1/"
   xmlns:cc="http://creativecommons.org/ns#"
   xmlns:rdf="http://www.w3.org/1999/02/22-rdf-syntax-ns#"
   xmlns:svg="http://www.w3.org/2000/svg"
   xmlns="http://www.w3.org/2000/svg"
   xmlns:xlink="http://www.w3.org/1999/xlink"
   xmlns:sodipodi="http://sodipodi.sourceforge.net/DTD/sodipodi-0.dtd"
   xmlns:inkscape="http://www.inkscape.org/namespaces/inkscape"
   width="29.41144mm"
   height="29.736252mm"
   viewBox="0 0 29.41144 29.736252"
   version="1.1"
   id="svg73"
   inkscape:version="1.0.2 (e86c870879, 2021-01-15)"
   sodipodi:docname="python-color.svg">
  <defs
     id="defs67">
    <linearGradient
       x1="26.648937"
       y1="20.603781"
       x2="135.66525"
       y2="114.39767"
       id="linearGradient1478"
       xlink:href="#linearGradient4689"
       gradientUnits="userSpaceOnUse"
       gradientTransform="matrix(0.14883897,0,0,0.15027592,98.500503,132.47014)" />
    <linearGradient
       id="linearGradient4689">
      <stop
         style="stop-color:#5a9fd4;stop-opacity:1"
         offset="0"
         id="stop4691" />
      <stop
         style="stop-color:#306998;stop-opacity:1"
         offset="1"
         id="stop4693" />
    </linearGradient>
    <linearGradient
       x1="150.96111"
       y1="192.35176"
       x2="112.03144"
       y2="137.27299"
       id="linearGradient1475"
       xlink:href="#linearGradient4671"
       gradientUnits="userSpaceOnUse"
       gradientTransform="matrix(0.14883897,0,0,0.15027592,98.500503,132.47014)" />
    <linearGradient
       id="linearGradient4671">
      <stop
         style="stop-color:#ffd43b;stop-opacity:1"
         offset="0"
         id="stop4673" />
      <stop
         style="stop-color:#ffe873;stop-opacity:1"
         offset="1"
         id="stop4675" />
    </linearGradient>
  </defs>
  <sodipodi:namedview
     id="base"
     pagecolor="#ffffff"
     bordercolor="#666666"
     borderopacity="1.0"
     inkscape:pageopacity="0.0"
     inkscape:pageshadow="2"
     inkscape:zoom="3.959798"
     inkscape:cx="35.054442"
     inkscape:cy="54.606243"
     inkscape:document-units="mm"
     inkscape:current-layer="layer1"
     inkscape:document-rotation="0"
     showgrid="false"
     inkscape:window-width="1920"
     inkscape:window-height="1025"
     inkscape:window-x="0"
     inkscape:window-y="25"
     inkscape:window-maximized="1" />
  <metadata
     id="metadata70">
    <rdf:RDF>
      <cc:Work
         rdf:about="">
        <dc:format>image/svg+xml</dc:format>
        <dc:type
           rdf:resource="http://purl.org/dc/dcmitype/StillImage" />
        <dc:title />
      </cc:Work>
    </rdf:RDF>
  </metadata>
  <g
     inkscape:label="Layer 1"
     inkscape:groupmode="layer"
     id="layer1"
     transform="translate(-102.46691,-135.5664)">
    <path
       id="path1948"
       style="fill:url(#linearGradient1478);fill-opacity:1;stroke-width:0.264583"
       d="m 116.9975,135.56664 c -1.21276,0.006 -2.37092,0.10906 -3.38998,0.28938 -3.00201,0.53036 -3.54707,1.64045 -3.54707,3.68764 v 2.70371 h 7.09414 v 0.90123 h -7.09414 -2.66237 c -2.06175,0 -3.86708,1.23924 -4.43177,3.59668 -0.65135,2.70218 -0.68024,4.38839 0,7.2099 0.50428,2.10022 1.70856,3.59668 3.77032,3.59668 h 2.43912 v -3.24115 c 0,-2.34153 2.02596,-4.40696 4.43177,-4.40696 h 7.08588 c 1.97245,0 3.54707,-1.62406 3.54707,-3.60495 v -6.75514 c 0,-1.92256 -1.62189,-3.36677 -3.54707,-3.68764 -1.21867,-0.20286 -2.48314,-0.29502 -3.6959,-0.28938 z m -3.83646,2.17454 c 0.73278,0 1.33119,0.60818 1.33119,1.35599 -1e-5,0.74516 -0.59841,1.34772 -1.33119,1.34772 -0.7354,0 -1.33118,-0.60256 -1.33118,-1.34772 0,-0.74781 0.59578,-1.35599 1.33118,-1.35599 z" />
    <path
       id="path1950"
       style="fill:url(#linearGradient1475);fill-opacity:1;stroke-width:0.264583"
       d="m 125.12517,143.1486 v 3.1502 c 0,2.4423 -2.0706,4.49791 -4.43177,4.49791 h -7.08588 c -1.94093,0 -3.54707,1.66119 -3.54707,3.60495 v 6.75515 c 0,1.92255 1.6718,3.05337 3.54707,3.60494 2.24561,0.6603 4.39903,0.77963 7.08588,0 1.78598,-0.5171 3.54707,-1.55776 3.54707,-3.60494 v -2.70371 h -7.08588 v -0.90124 h 7.08588 3.54707 c 2.06175,0 2.83005,-1.43812 3.54707,-3.59668 0.74065,-2.22221 0.70914,-4.35922 0,-7.2099 -0.50953,-2.05249 -1.48269,-3.59668 -3.54707,-3.59668 z m -3.98529,17.10697 c 0.7354,0 1.33119,0.60257 1.33119,1.34772 0,0.7478 -0.59579,1.35599 -1.33119,1.35599 -0.73278,0 -1.33118,-0.60819 -1.33118,-1.35599 0,-0.74515 0.5984,-1.34772 1.33118,-1.34772 z" />
  </g>
</svg>
